<svg xmlns="http://www.w3.org/2000/svg" viewBox="0 0 500 500"><g id="freepik--background-complete--inject-9"><rect y="382.4" width="500" height="0.25" style="fill:#ebebeb"></rect><rect x="416.78" y="398.49" width="33.12" height="0.25" style="fill:#ebebeb"></rect><rect x="322.53" y="401.21" width="8.69" height="0.25" style="fill:#ebebeb"></rect><rect x="396.59" y="389.21" width="19.19" height="0.25" style="fill:#ebebeb"></rect><rect x="52.46" y="390.89" width="43.19" height="0.25" style="fill:#ebebeb"></rect><rect x="104.56" y="390.89" width="6.33" height="0.25" style="fill:#ebebeb"></rect><rect x="131.47" y="395.11" width="93.68" height="0.25" style="fill:#ebebeb"></rect><path d="M237,337.8H43.91a5.71,5.71,0,0,1-5.7-5.71V60.66A5.71,5.71,0,0,1,43.91,55H237a5.71,5.71,0,0,1,5.71,5.71V332.09A5.71,5.71,0,0,1,237,337.8ZM43.91,55.2a5.46,5.46,0,0,0-5.45,5.46V332.09a5.46,5.46,0,0,0,5.45,5.46H237a5.47,5.47,0,0,0,5.46-5.46V60.66A5.47,5.47,0,0,0,237,55.2Z" style="fill:#ebebeb"></path><path d="M453.31,337.8H260.21a5.72,5.72,0,0,1-5.71-5.71V60.66A5.72,5.72,0,0,1,260.21,55h193.1A5.71,5.71,0,0,1,459,60.66V332.09A5.71,5.71,0,0,1,453.31,337.8ZM260.21,55.2a5.47,5.47,0,0,0-5.46,5.46V332.09a5.47,5.47,0,0,0,5.46,5.46h193.1a5.47,5.47,0,0,0,5.46-5.46V60.66a5.47,5.47,0,0,0-5.46-5.46Z" style="fill:#ebebeb"></path><rect x="69.95" y="114.13" width="130.44" height="6.7" style="fill:#e0e0e0"></rect><rect x="75.95" y="89.43" width="5.75" height="24.7" style="fill:#ebebeb"></rect><rect x="103.74" y="89.43" width="5.75" height="24.7" style="fill:#ebebeb"></rect><rect x="137.42" y="89.12" width="5.75" height="24.7" transform="translate(-15.2 25.3) rotate(-9.78)" style="fill:#ebebeb"></rect><rect x="83.07" y="92.68" width="5.75" height="21.45" style="fill:#ebebeb"></rect><rect x="96.28" y="92.68" width="5.75" height="21.45" style="fill:#ebebeb"></rect><rect x="129.62" y="92.68" width="5.75" height="21.45" style="fill:#ebebeb"></rect><rect x="113.68" y="92.32" width="5.75" height="21.45" transform="translate(-19.57 27.73) rotate(-12.53)" style="fill:#ebebeb"></rect><rect x="90.92" y="88.2" width="2.87" height="25.93" style="fill:#ebebeb"></rect><rect x="125.1" y="88.2" width="2.87" height="25.93" style="fill:#ebebeb"></rect><rect x="159.87" y="94.58" width="28" height="19.33" style="fill:#ebebeb"></rect><rect x="69.95" y="164.16" width="130.44" height="6.7" transform="translate(270.34 335.03) rotate(180)" style="fill:#e0e0e0"></rect><rect x="188.64" y="139.46" width="5.75" height="24.7" transform="translate(383.02 303.62) rotate(180)" style="fill:#ebebeb"></rect><rect x="160.85" y="139.46" width="5.75" height="24.7" transform="translate(327.45 303.62) rotate(180)" style="fill:#ebebeb"></rect><rect x="127.17" y="139.15" width="5.75" height="24.7" transform="translate(232.46 322.89) rotate(-170.22)" style="fill:#ebebeb"></rect><rect x="181.52" y="142.72" width="5.75" height="21.45" transform="translate(368.78 306.88) rotate(180)" style="fill:#ebebeb"></rect><rect x="168.31" y="142.72" width="5.75" height="21.45" transform="translate(342.36 306.88) rotate(180)" style="fill:#ebebeb"></rect><rect x="134.97" y="142.72" width="5.75" height="21.45" transform="translate(275.68 306.88) rotate(180)" style="fill:#ebebeb"></rect><rect x="150.91" y="142.35" width="5.75" height="21.45" transform="translate(270.7 335.85) rotate(-167.47)" style="fill:#ebebeb"></rect><rect x="176.55" y="138.23" width="2.87" height="25.93" transform="translate(355.97 302.4) rotate(180)" style="fill:#ebebeb"></rect><rect x="142.37" y="138.23" width="2.87" height="25.93" transform="translate(287.61 302.4) rotate(180)" style="fill:#ebebeb"></rect><rect x="82.46" y="144.61" width="28" height="19.33" transform="translate(192.93 308.55) rotate(180)" style="fill:#ebebeb"></rect><rect x="295.84" y="90.84" width="130.92" height="144.87" style="fill:#e9e9e9"></rect><rect x="301.6" y="96.58" width="119.74" height="133.69" style="fill:#f4f4f4"></rect><polygon points="335.44 96.58 301.6 223.32 301.6 154.71 317.09 96.58 335.44 96.58" style="fill:#fff"></polygon><polygon points="350.57 96.58 314.88 230.27 308.15 230.27 343.83 96.58 350.57 96.58" style="fill:#fff"></polygon><polygon points="421.34 133.04 421.34 201.66 413.76 230.27 395.4 230.27 421.34 133.04" style="fill:#fff"></polygon><rect x="358.97" y="90.84" width="4.65" height="144.87" style="fill:#e9e9e9"></rect><rect x="298.11" y="120.24" width="126.13" height="4.65" style="fill:#e9e9e9"></rect><path d="M443.63,312.23c-1.8-3-4.77-.38-4.77-.38.43-5.68-4.8-9.57-4.8-9.57s6.07,0,6.92-5.79-2.12-3.1-4.9-3.14-5.69,8.09-2,12.66,2.68,12.36-5.78,19.87a16.48,16.48,0,0,0-4.42,6.9c.63-6.89,1-16.6-1-23.09-3.45-11,3.12-14,5-19.48s-5-10.16-5-10.16,6.5-3,3.33-6.35-9.74-2.93-9.74,1.5,4.45,6.12,4.45,6.12,5.08,5.29,5.08,8.05-5.08,8.68-5.08,8.68,2.32-5.08-2.33-5.29-6.14,5.92-4.24,8.68,5.08.42,5.08.42a53.45,53.45,0,0,0,1.46,9.53c.48,1.58.25,7.79-.15,14.25a16.09,16.09,0,0,0-4.12-6.12c-8.47-7.5-9.46-15.3-5.79-19.87s.76-12.69-2-12.65-5.74-2.66-4.9,3.14,6.92,5.79,6.92,5.79-5.22,3.89-4.8,9.57c0,0-3-2.58-4.76.38-3.22,5.29,4.23,8.58,5.48,6,0,0,15.79,11.18,12,27.27l.89,1.31c-.12,1.3-.19,2.08-.19,2.08l1.24-.53,1.4,2.07a48.27,48.27,0,0,0,.36,7l3.78-5.57c-3.81-16.1,12-27.28,12-27.28C439.39,320.81,446.84,317.53,443.63,312.23Z" style="fill:#e0e0e0"></path><path d="M443.63,312.23c-1.8-3-4.77-.38-4.77-.38.43-5.68-4.8-9.57-4.8-9.57s6.07,0,6.92-5.79-2.12-3.1-4.9-3.14-5.69,8.09-2,12.66,2.68,12.36-5.78,19.87a16.48,16.48,0,0,0-4.42,6.9c.63-6.89,1-16.6-1-23.09-3.45-11,3.12-14,5-19.48s-5-10.16-5-10.16,6.5-3,3.33-6.35-9.74-2.93-9.74,1.5,4.45,6.12,4.45,6.12,5.08,5.29,5.08,8.05-5.08,8.68-5.08,8.68,2.32-5.08-2.33-5.29-6.14,5.92-4.24,8.68,5.08.42,5.08.42a53.45,53.45,0,0,0,1.46,9.53c.48,1.58.25,7.79-.15,14.25a16.09,16.09,0,0,0-4.12-6.12c-8.47-7.5-9.46-15.3-5.79-19.87s.76-12.69-2-12.65-5.74-2.66-4.9,3.14,6.92,5.79,6.92,5.79-5.22,3.89-4.8,9.57c0,0-3-2.58-4.76.38-3.22,5.29,4.23,8.58,5.48,6,0,0,15.79,11.18,12,27.27l.89,1.31c-.12,1.3-.19,2.08-.19,2.08l1.24-.53,1.4,2.07a48.27,48.27,0,0,0,.36,7l3.78-5.57c-3.81-16.1,12-27.28,12-27.28C439.39,320.81,446.84,317.53,443.63,312.23Z" style="fill:#e0e0e0;opacity:0.2;isolation:isolate"></path><polygon points="440.54 380.88 404.36 380.88 400.46 341.27 444.44 341.27 440.54 380.88" style="fill:#e6e6e6"></polygon><rect x="398.53" y="336.9" width="47.84" height="8.74" style="fill:#f0f0f0"></rect></g><g id="freepik--Shadow--inject-9"><ellipse id="freepik--path--inject-9" cx="250" cy="416.24" rx="193.89" ry="11.32" style="fill:#f5f5f5"></ellipse></g><g id="freepik--Bookshelf--inject-9"><rect x="66.45" y="194.07" width="176.02" height="220.8" transform="translate(308.93 608.95) rotate(180)" style="fill:#407BFF"></rect><rect x="66.45" y="194.07" width="176.12" height="220.23" style="fill:#fff;opacity:0.5"></rect><rect x="97.68" y="201" width="139.59" height="40.67" style="opacity:0.2;isolation:isolate"></rect><rect x="97.68" y="207.59" width="7.93" height="34.09" style="fill:#fff;opacity:0.5"></rect><rect x="136.02" y="207.59" width="7.93" height="34.09" style="fill:#fff;opacity:0.5"></rect><rect x="182.5" y="207.16" width="7.93" height="34.09" transform="translate(-35.37 34.93) rotate(-9.78)" style="fill:#fff;opacity:0.5"></rect><rect x="107.5" y="212.08" width="7.93" height="29.6" style="fill:#fff;opacity:0.5"></rect><rect x="125.73" y="212.08" width="7.93" height="29.6" style="fill:#fff;opacity:0.5"></rect><rect x="171.74" y="212.08" width="7.93" height="29.6" style="fill:#fff;opacity:0.5"></rect><rect x="149.74" y="211.57" width="7.93" height="29.6" transform="translate(-45.44 38.73) rotate(-12.53)" style="fill:#fff;opacity:0.5"></rect><rect x="118.33" y="205.9" width="3.96" height="35.78" style="fill:#fff;opacity:0.5"></rect><rect x="165.49" y="205.9" width="3.96" height="35.78" style="fill:#fff;opacity:0.5"></rect><rect x="97.68" y="248.12" width="139.59" height="40.67" transform="translate(334.95 536.91) rotate(180)" style="opacity:0.2;isolation:isolate"></rect><rect x="229.34" y="254.7" width="7.93" height="34.09" transform="translate(466.61 543.49) rotate(180)" style="fill:#fff;opacity:0.5"></rect><rect x="191" y="254.7" width="7.93" height="34.09" transform="translate(389.92 543.49) rotate(180)" style="fill:#fff;opacity:0.5"></rect><rect x="144.52" y="254.28" width="7.93" height="34.09" transform="translate(248.72 563.92) rotate(-170.22)" style="fill:#fff;opacity:0.5"></rect><rect x="219.51" y="259.19" width="7.93" height="29.6" transform="translate(446.96 547.98) rotate(180)" style="fill:#fff;opacity:0.5"></rect><rect x="201.29" y="259.19" width="7.93" height="29.6" transform="translate(410.5 547.98) rotate(180)" style="fill:#fff;opacity:0.5"></rect><rect x="155.28" y="259.19" width="7.93" height="29.6" transform="translate(318.49 547.98) rotate(180)" style="fill:#fff;opacity:0.5"></rect><rect x="177.28" y="258.69" width="7.93" height="29.6" transform="translate(298.85 579.77) rotate(-167.47)" style="fill:#fff;opacity:0.5"></rect><rect x="212.66" y="253.01" width="3.96" height="35.78" transform="translate(429.28 541.8) rotate(180)" style="fill:#fff;opacity:0.5"></rect><rect x="165.49" y="253.01" width="3.96" height="35.78" transform="translate(334.95 541.8) rotate(180)" style="fill:#fff;opacity:0.5"></rect><rect x="97.68" y="254.7" width="7.93" height="34.09" style="fill:#fff;opacity:0.5"></rect><rect x="107.5" y="259.19" width="7.93" height="29.6" style="fill:#fff;opacity:0.5"></rect><rect x="125.73" y="259.19" width="7.93" height="29.6" style="fill:#fff;opacity:0.5"></rect><rect x="118.33" y="253.01" width="3.96" height="35.78" style="fill:#fff;opacity:0.5"></rect><rect x="97.68" y="295.23" width="139.59" height="40.67" style="opacity:0.2;isolation:isolate"></rect><g style="opacity:0.5"><rect x="177.8" y="301.82" width="7.93" height="34.09" style="fill:#fff"></rect><rect x="224.28" y="301.39" width="7.93" height="34.09" transform="translate(-50.77 43.39) rotate(-9.78)" style="fill:#fff"></rect><rect x="149.28" y="306.31" width="7.93" height="29.6" style="fill:#fff"></rect><rect x="167.51" y="306.31" width="7.93" height="29.6" style="fill:#fff"></rect><rect x="213.51" y="306.31" width="7.93" height="29.6" style="fill:#fff"></rect><rect x="191.52" y="305.8" width="7.93" height="29.6" transform="translate(-64.89 50.03) rotate(-12.53)" style="fill:#fff"></rect><rect x="160.1" y="300.12" width="3.96" height="35.78" style="fill:#fff"></rect><rect x="207.27" y="300.12" width="3.96" height="35.78" style="fill:#fff"></rect><rect x="133.05" y="301.39" width="7.93" height="34.09" transform="translate(-52.09 27.9) rotate(-9.78)" style="fill:#fff"></rect><rect x="122.28" y="306.31" width="7.93" height="29.6" style="fill:#fff"></rect><rect x="100.29" y="305.8" width="7.93" height="29.6" transform="translate(-67.06 30.25) rotate(-12.53)" style="fill:#fff"></rect><rect x="116.04" y="300.12" width="3.96" height="35.78" style="fill:#fff"></rect></g><rect x="66.45" y="194.07" width="25.91" height="220.8" transform="translate(158.82 608.95) rotate(180)" style="opacity:0.2;isolation:isolate"></rect><rect x="170.16" y="343.12" width="66.07" height="62.57" style="opacity:0.1;isolation:isolate"></rect><rect x="97.68" y="343.12" width="67.21" height="62.57" style="opacity:0.1;isolation:isolate"></rect><path d="M160.87,371.23a3.18,3.18,0,1,1-3.18-3.18A3.18,3.18,0,0,1,160.87,371.23Z" style="opacity:0.2;isolation:isolate"></path><path d="M179.87,371.23a3.18,3.18,0,1,1-3.18-3.18A3.18,3.18,0,0,1,179.87,371.23Z" style="opacity:0.2;isolation:isolate"></path></g><g id="freepik--Table--inject-9"><polygon points="359.04 215.35 346.19 215.35 349.61 252.14 329.29 255.19 329.29 257.75 372.09 257.75 372.09 255.19 363.32 252.14 359.04 215.35" style="fill:#263238"></polygon><path d="M309.15,238.7a4,4,0,0,0,4,4.47H391a5,5,0,0,0,4.87-4.47l4.62-49.8a4.08,4.08,0,0,0-.1-1.45,4,4,0,0,0-3.93-3H318.64a5,5,0,0,0-4.87,4.47Z" style="fill:#263238"></path><path d="M391,240.67a2.49,2.49,0,0,0,2.38-2.2l4.62-49.8a1.71,1.71,0,0,0,0-.61,1.46,1.46,0,0,0-1.5-1.13H318.64a2.48,2.48,0,0,0-2.37,2.2l-4.62,49.8a1.61,1.61,0,0,0,.38,1.26,1.5,1.5,0,0,0,1.16.48Z" style="fill:#407BFF"></path><path d="M391,240.67a2.49,2.49,0,0,0,2.38-2.2l4.62-49.8a1.71,1.71,0,0,0,0-.61,1.46,1.46,0,0,0-1.5-1.13H318.64a2.48,2.48,0,0,0-2.37,2.2l-4.62,49.8a1.61,1.61,0,0,0,.38,1.26,1.5,1.5,0,0,0,1.16.48Z" style="fill:#fff;opacity:0.6000000000000001;isolation:isolate"></path><path d="M336.91,227.48s-1.58-27.84,5.28-34.2,16.1-4.51,21-1.11,10.28,12.23,5.4,38.47Z" style="fill:#263238"></path><path d="M368.41,240.67a.5.5,0,0,1,0-.13q.89-2.85,2-6.15c.55-1.67,1.14-3.44,1.8-5.31a84.82,84.82,0,0,0-12-2.89,92,92,0,0,0-12.94-1.36c-5.61-.05-12.05.58-12.05.58s-.92.22-1.49,6.17c-.2,2.14-.4,5.11-.51,9.09Z" style="fill:#407BFF"></path><path d="M368.41,240.67a.5.5,0,0,1,0-.13q.89-2.85,2-6.15c.55-1.67,1.14-3.44,1.8-5.31a84.82,84.82,0,0,0-12-2.89,92,92,0,0,0-12.94-1.36c-5.61-.05-12.05.58-12.05.58s-.92.22-1.49,6.17c-.18,1.92-.35,5-.44,9.09Z" style="fill:#407BFF"></path><g style="opacity:0.2;isolation:isolate"><path d="M368.41,240.67a.5.5,0,0,1,0-.13q.89-2.85,2-6.15c.55-1.67,1.14-3.44,1.8-5.31a84.82,84.82,0,0,0-12-2.89,92,92,0,0,0-12.94-1.36c-5.61-.05-12.05.58-12.05.58s-.92.22-1.49,6.17c-.2,2.14-.4,5.11-.51,9.09Z"></path><path d="M368.41,240.67a.5.5,0,0,1,0-.13q.89-2.85,2-6.15c.55-1.67,1.14-3.44,1.8-5.31a84.82,84.82,0,0,0-12-2.89,92,92,0,0,0-12.94-1.36c-5.61-.05-12.05.58-12.05.58s-.92.22-1.49,6.17c-.18,1.92-.35,5-.44,9.09Z"></path></g><path d="M334.67,240.67h0l-.5-8.26-.43-7c-1.72.34-6.29,8.17-10.1,15.26Z" style="fill:#fff"></path><path d="M334.67,240.67h0l-.5-8.26a33.69,33.69,0,0,0-5.09,8.27Z" style="opacity:0.2;isolation:isolate"></path><path d="M377.19,240.67c-3.06-8.95-4.95-11.59-4.95-11.59l-4.11,11.59Z" style="fill:#fff"></path><path d="M349.7,231.19c7.1-.91,9.24-3.94,9.24-3.94-4.51-4.25-.76-11.62-.76-11.62l-8.55,1.59a25.33,25.33,0,0,1,.33,3.6c.06,5.19-2.28,5.25-2.28,5.25C346.18,228.88,349.7,231.19,349.7,231.19Z" style="fill:#eec1bb"></path><path d="M349.63,217.22a25.33,25.33,0,0,1,.33,3.6c5.78,0,8.22-5.19,8.22-5.19Z" style="opacity:0.2;isolation:isolate"></path><path d="M354.35,193.31c-7.43-.4-10,3.45-11,11.08-1.2,9.53.55,16.45,10,14.91C366.07,217.22,366.7,194,354.35,193.31Z" style="fill:#eec1bb"></path><path d="M348.17,204.23a15.47,15.47,0,0,1-2.33,3,2.06,2.06,0,0,0,1.91,1Z" style="fill:#d4827d"></path><path d="M353.11,198.75a3.86,3.86,0,0,1,3.16,1.3" style="fill:none;stroke:#263238;stroke-linecap:round;stroke-linejoin:round;stroke-width:0.7246800000000001px"></path><path d="M347.73,198.14a3.49,3.49,0,0,0-3,.44" style="fill:none;stroke:#263238;stroke-linecap:round;stroke-linejoin:round;stroke-width:0.7246800000000001px"></path><path d="M348.68,211.13a18.6,18.6,0,0,1,.72,2.63l.48,0c2.18-.1,3.16-.86,3.58-1.68a2.71,2.71,0,0,0,.28-1.3,2.6,2.6,0,0,0-.09-.76,10,10,0,0,1-4.23,1.08C349,211.13,348.68,211.13,348.68,211.13Z" style="fill:#263238"></path><path d="M349.42,211.08l.23.77c2.05-.1,3.48-.44,4.09-1.09a2.6,2.6,0,0,0-.09-.76A10,10,0,0,1,349.42,211.08Z" style="fill:#fff"></path><path d="M349.88,213.74c2.18-.1,3.16-.86,3.58-1.68a6.87,6.87,0,0,0-2.39.59A2.66,2.66,0,0,0,349.88,213.74Z" style="fill:#de5753"></path><path d="M361.79,206.29s-3.14-6.3-2.36-11c0,0-14.4-6.82-15.94,8.09,0,0-.71-13.35,12.08-12.95s11.72,19.09,4.81,24.3C360.38,214.74,363.73,210.22,361.79,206.29Z" style="fill:#263238"></path><path d="M360.49,207.79a3.28,3.28,0,0,1,3.67-2.79c2.29.38,3.13,5.17-2.66,6C360.67,211.11,360.25,210.28,360.49,207.79Z" style="fill:#eec1bb"></path><path d="M351.21,203.94s1.84-1.61,3.24-.29A16.32,16.32,0,0,1,351.21,203.94Z" style="fill:#263238"></path><path d="M347.7,203.85s-1.67-1.78-3.2-.61A16.84,16.84,0,0,0,347.7,203.85Z" style="fill:#263238"></path><path d="M365.53,228s-8.35,6.77-16.11,6.66-10.5-8.85-10.5-8.85S351,222.29,365.53,228Z" style="fill:#eec1bb"></path><path d="M369.63,240.67c.75-4,1.61-8,2.6-11.59l-7.41-2.32A53.14,53.14,0,0,0,360,240.67Z" style="fill:#fff"></path><path d="M338.74,240.67c.89-7.32.95-15.84.95-15.84l-5.95.58c-1.47,4-2.25,9.52-2.63,15.26Z" style="fill:#fff"></path><path d="M351.21,191.61a10,10,0,0,0-8.83,7.45,11.4,11.4,0,0,1,7.24-1.49,18.75,18.75,0,0,1,1.59-2.7,8.58,8.58,0,0,0-.87,2.77,25.92,25.92,0,0,1,4,.77,9.65,9.65,0,0,1,1.37-2,7.33,7.33,0,0,0-.45,2.3,27.42,27.42,0,0,1,2.93,1.05,13.1,13.1,0,0,1,2.24-5.14S358.55,190.93,351.21,191.61Z" style="fill:#263238"></path><path d="M361.86,209.85a.86.86,0,0,1-.07-.1,1.88,1.88,0,0,1-.21-1.19c.11-.87,1.41-3,2.42-1.76a1.67,1.67,0,0,1,.3,1.12,3.5,3.5,0,0,1-.43,1.55,1.47,1.47,0,0,1-1.06.84A1.08,1.08,0,0,1,361.86,209.85Z" style="fill:#407BFF"></path><path d="M361.86,209.85a.86.86,0,0,1-.07-.1,1.88,1.88,0,0,1-.21-1.19c.11-.87,1.41-3,2.42-1.76a1.67,1.67,0,0,1,.3,1.12,3.5,3.5,0,0,1-.43,1.55,1.47,1.47,0,0,1-1.06.84A1.08,1.08,0,0,1,361.86,209.85Z" style="opacity:0.2;isolation:isolate"></path><path d="M362,208.48s.89-1.88,1.49-1.53.36,2-.22,2.32a1.76,1.76,0,0,0-.77.94s-2.47,3-3.12,2.69v-.84A8,8,0,0,0,362,208.48Z" style="fill:#407BFF"></path><polygon points="346.24 418.16 352.37 418.16 363.38 264.92 355.25 264.92 346.24 418.16" style="fill:#263238"></polygon><polygon points="346.24 418.16 352.37 418.16 362.84 272.53 363.38 265.16 355.25 265.16 354.81 272.53 346.24 418.16" style="fill:#fff;opacity:0.4;isolation:isolate"></polygon><polygon points="354.81 272.16 362.84 272.16 363.38 265.16 355.25 265.16 354.81 272.16" style="opacity:0.2;isolation:isolate"></polygon><polygon points="301.28 418.16 307.41 418.16 308.41 264.92 300.28 264.92 301.28 418.16" style="fill:#263238"></polygon><polygon points="300.28 265.16 300.44 289.89 301.28 418.16 307.41 418.16 308.25 289.89 308.41 265.16 300.28 265.16" style="fill:#fff;opacity:0.5;isolation:isolate"></polygon><polygon points="300.28 265.16 300.44 290.16 308.25 290.16 308.41 265.16 300.28 265.16" style="opacity:0.2;isolation:isolate"></polygon><polygon points="236.24 418.16 242.37 418.16 253.38 264.92 245.25 264.92 236.24 418.16" style="fill:#263238"></polygon><polygon points="236.24 418.16 242.37 418.16 252.84 272.53 253.38 265.16 245.25 265.16 244.81 272.53 236.24 418.16" style="fill:#fff;opacity:0.5;isolation:isolate"></polygon><polygon points="244.81 272.16 252.84 272.16 253.38 265.16 245.25 265.16 244.81 272.16" style="opacity:0.2;isolation:isolate"></polygon><polygon points="416.32 418.16 422.45 418.16 413.45 264.92 405.32 264.92 416.32 418.16" style="fill:#263238"></polygon><polygon points="405.32 265.16 405.86 272.53 416.33 418.16 422.45 418.16 413.89 272.53 413.45 265.16 405.32 265.16" style="fill:#fff;opacity:0.5;isolation:isolate"></polygon><polygon points="413.45 265.16 405.32 265.16 405.86 272.16 413.89 272.16 413.45 265.16" style="opacity:0.2;isolation:isolate"></polygon><path d="M241,261.08H417.73a2.16,2.16,0,0,1,2.16,2.16v5.51a0,0,0,0,1,0,0H238.81a0,0,0,0,1,0,0v-5.51A2.16,2.16,0,0,1,241,261.08Z" transform="translate(658.69 529.83) rotate(180)" style="fill:#407BFF"></path><path d="M241,261.08H417.73a2.16,2.16,0,0,1,2.16,2.16v5.51a0,0,0,0,1,0,0H238.81a0,0,0,0,1,0,0v-5.51A2.16,2.16,0,0,1,241,261.08Z" transform="translate(658.69 529.83) rotate(180)" style="fill:#fff;opacity:0.6000000000000001;isolation:isolate"></path><rect x="238.81" y="261.08" width="181.08" height="3.84" transform="translate(658.69 525.99) rotate(180)" style="opacity:0.2;isolation:isolate"></rect><path d="M235,262.08H423.69a2.16,2.16,0,0,0,2.16-2.16h0a2.17,2.17,0,0,0-2.16-2.17H235a2.17,2.17,0,0,0-2.16,2.17h0A2.16,2.16,0,0,0,235,262.08Z" style="fill:#407BFF"></path><path d="M235,262.08H423.69a2.16,2.16,0,0,0,2.16-2.16h0a2.17,2.17,0,0,0-2.16-2.17H235a2.17,2.17,0,0,0-2.16,2.17h0A2.16,2.16,0,0,0,235,262.08Z" style="fill:#fff;opacity:0.6000000000000001;isolation:isolate"></path><polygon points="346.31 257.75 345.32 254.03 304.77 254.03 286.1 255.89 285.39 257.75 346.31 257.75" style="fill:#263238"></polygon><polygon points="304.77 254.03 304.77 257.75 346.31 257.75 345.32 254.03 304.77 254.03" style="opacity:0.4;isolation:isolate"></polygon><path d="M421.18,252.31a12.36,12.36,0,0,1-1,5.44h-43v-1h.87v-8.85h-.87v-1h43A12.7,12.7,0,0,1,421.18,252.31Z" style="fill:#263238"></path><path d="M421.18,252.31a12.36,12.36,0,0,1-1,5.44h-43v-1h.87v-8.85h-.87v-1h43A12.7,12.7,0,0,1,421.18,252.31Z" style="fill:#fff;opacity:0.2;isolation:isolate"></path><path d="M398.18,252.31a12.36,12.36,0,0,1-1,5.44h-20v-1h.87v-8.85h-.87v-1h20A12.7,12.7,0,0,1,398.18,252.31Z" style="opacity:0.2;isolation:isolate"></path><path d="M396.06,252.31a10.06,10.06,0,0,1-.81,4.42H378.06v-8.85h17.19A10.35,10.35,0,0,1,396.06,252.31Z" style="fill:#fff;opacity:0.8;isolation:isolate"></path><path d="M414.18,252.31a12.36,12.36,0,0,1-1,5.44h-8a12.36,12.36,0,0,0,1-5.44,12.7,12.7,0,0,0-1-5.45h8A12.7,12.7,0,0,1,414.18,252.31Z" style="fill:#fff;opacity:0.6000000000000001;isolation:isolate"></path><path d="M425,241.42a12.36,12.36,0,0,1-1,5.44H381v-1h.87V237H381v-1h43A12.7,12.7,0,0,1,425,241.42Z" style="fill:#407BFF"></path><path d="M402,241.42a12.36,12.36,0,0,1-1,5.44H381v-1h.87V237H381v-1h20A12.7,12.7,0,0,1,402,241.42Z" style="opacity:0.2;isolation:isolate"></path><path d="M399.89,241.42a10.06,10.06,0,0,1-.81,4.42H381.89V237h17.19A10.35,10.35,0,0,1,399.89,241.42Z" style="fill:#fff;opacity:0.8;isolation:isolate"></path><path d="M418,241.42a12.36,12.36,0,0,1-1,5.44h-8a12.36,12.36,0,0,0,1-5.44,12.7,12.7,0,0,0-1-5.45h8A12.7,12.7,0,0,1,418,241.42Z" style="opacity:0.2;isolation:isolate"></path></g><g id="freepik--speech-bubble-2--inject-9"><rect x="313.78" y="128.1" width="36.13" height="36.13" rx="3.03" style="fill:#407BFF"></rect><path d="M327.71,161s1.84,10.18,15.29,14.77c0,0-7.64-7.38-7.64-14.77Z" style="fill:#407BFF"></path><line x1="323.67" y1="139.4" x2="340.03" y2="139.4" style="fill:none;stroke:#fff;stroke-miterlimit:10;stroke-width:2px"></line><path d="M329.11,135.44a28,28,0,0,0,4.26,17.93" style="fill:none;stroke:#fff;stroke-miterlimit:10;stroke-width:2px"></path><path d="M335.69,152.26s4.34-.73,3.26-4.69c-.95-3.51-10.68-5.39-13.15.73-1.9,4.68,2.69,3.91,5.36,2.44,4.66-2.58,5.62-8.44,5.62-8.44" style="fill:none;stroke:#fff;stroke-miterlimit:10;stroke-width:2px"></path></g><g id="freepik--speech-bubble-1--inject-9"><path d="M256.19,161s1.84,10.18,15.29,14.77c0,0-7.64-7.38-7.64-14.77Z" style="fill:#407BFF"></path><path d="M256.19,161s1.84,10.18,15.29,14.77c0,0-7.64-7.38-7.64-14.77Z" style="fill:#fff;opacity:0.6000000000000001;isolation:isolate"></path><rect x="242.29" y="128.1" width="36.13" height="36.13" rx="3.03" style="fill:#407BFF"></rect><rect x="242.29" y="128.1" width="36.13" height="36.13" rx="3.03" style="fill:#fff;opacity:0.6000000000000001;isolation:isolate"></rect><path d="M264,152.26l-1.22-3.43h-4.73l-1.22,3.43h-2.7l5.06-14.21h2.45l5.06,14.21Zm-3.59-10.11L259,146.31h2.95Z" style="fill:#407BFF"></path></g><g id="freepik--Character--inject-9"><g id="freepik--group--inject-9"><path d="M348.69,240.58,336.35,252l1.71,1.39L350,242a1,1,0,0,0,0-1.38h0A1,1,0,0,0,348.69,240.58Z" style="fill:#407BFF"></path><path d="M331.32,249.87l7.25-3.3s6.07-1.13,8.57-.57,8.05,8.09,7.92,9-9.61,3.17-9.82,3.17-4.31-2.33-4.31-2.33l-6.71,2.33Z" style="fill:#e4897b"></path><polygon points="268.53 407.94 276.49 406.85 277.6 387.91 269.64 389.01 268.53 407.94" style="fill:#ebb376"></polygon><polygon points="269.64 389.01 277.6 387.92 276.96 398.75 269.02 399.44 269.64 389.01" style="opacity:0.2;isolation:isolate"></polygon><path d="M268.85,296.62l-2-12.17-44.66-2.67s-4.75,25.33-1.1,32.08c6.52,12.05,41.62,6,51.89,7.16-6.14,25.11-5.54,74.18-5.54,74.18l14.67,1.12s11.29-52.88,13.57-78C297.27,301.36,283.23,301.79,268.85,296.62Z" style="fill:#407BFF"></path><polygon points="265.77 395.89 283.4 397.05 284.91 389.5 265.54 388.6 265.77 395.89" style="fill:#407BFF"></polygon><polygon points="265.77 395.89 283.4 397.05 284.91 389.5 265.54 388.6 265.77 395.89" style="fill:#fff;opacity:0.2"></polygon><path d="M277.09,405.89l-9-.56a.56.56,0,0,0-.62.5h0l-.88,7.1a1.43,1.43,0,0,0,1.31,1.51c3.15.14,4.65.05,8.62.27a74.45,74.45,0,0,0,10.57.34c3.36-.33,2.95-3.63,1.5-3.79-3.44-.39-8-2.92-10.14-4.83A2.23,2.23,0,0,0,277.09,405.89Z" style="fill:#263238"></path><polygon points="286.9 407.87 294.92 408.46 299.95 390.17 291.94 389.59 286.9 407.87" style="fill:#ebb376"></polygon><path d="M296,408.82s0,0,0,.06h.07a10,10,0,0,0,2,.84,2.21,2.21,0,0,0,1.56,0,1,1,0,0,0,.5-.95.73.73,0,0,0-.27-.63,3.24,3.24,0,0,0-2.25-.06,3,3,0,0,0,1.19-1.63.7.7,0,0,0-.49-.72.9.9,0,0,0-.8,0c-1,.53-1.36,2.78-1.39,2.9h0a.59.59,0,0,1-.13,0A.14.14,0,0,0,296,408.82Zm.59-.45-.18.06c.19-.74.6-1.95,1.18-2.26a.54.54,0,0,1,.43-.06l.09,0c.25.1.28.25.26.36C298.35,407,297.42,407.94,296.63,408.37Zm0,.42c1.06-.33,2.53-.61,3-.28a.32.32,0,0,1,.13.31.66.66,0,0,1-.3.61C299,409.68,298,409.44,296.66,408.79Z" style="fill:#407BFF"></path><polygon points="291.94 389.59 299.94 390.18 297.07 400.63 289.15 399.66 291.94 389.59" style="opacity:0.2;isolation:isolate"></polygon><path d="M302.66,399.34l-14.12-4.15s8.43-47.58,17-64.08c-.64-.21-1.49-.48-2.54-.79-1.89-.57-4.4-1.28-7.35-2.1-20.52-5.69-62.11-16.36-62.11-16.36l19-17.73s75.68,11.54,77.25,31.48C330.52,335.2,302.66,399.34,302.66,399.34Z" style="fill:#407BFF"></path><polygon points="286.72 395.51 303.72 400.31 306.77 393.24 288.01 388.33 286.72 395.51" style="fill:#407BFF"></polygon><polygon points="286.72 395.51 303.72 400.31 306.77 393.24 288.01 388.33 286.72 395.51" style="fill:#fff;opacity:0.2"></polygon><path d="M295.71,407.65,287,405.22a.58.58,0,0,0-.72.37h0L284,412.36a1.41,1.41,0,0,0,1,1.74c3,.8,4.54,1,8.37,2.06a75.16,75.16,0,0,0,10.27,2.54c3.35.38,3.64-2.94,2.25-3.4-3.28-1.1-7.2-4.51-8.9-6.84A2.29,2.29,0,0,0,295.71,407.65Z" style="fill:#263238"></path><path d="M277.29,406.87l.16,0s.18.06.21.08,0,0,0,0h.07a9.91,9.91,0,0,0,2.09.41,2.11,2.11,0,0,0,1.53-.3,1,1,0,0,0,.29-1,.73.73,0,0,0-.4-.56A3.34,3.34,0,0,0,279,406a2.81,2.81,0,0,0,.79-1.83.75.75,0,0,0-.68-.61,1.17,1.17,0,0,0-.89.21c-.84.72-1,3-1,3.13h0Zm.86-.46-.17.09a4.1,4.1,0,0,1,.68-2.46.56.56,0,0,1,.41-.15l.09,0c.27,0,.33.18.34.29A3.86,3.86,0,0,1,278.15,406.41Zm.11.39c1-.53,2.35-1.12,2.86-.88a.32.32,0,0,1,.19.27.69.69,0,0,1-.17.66C280.74,407.2,279.68,407.17,278.26,406.8Z" style="fill:#407BFF"></path><path d="M301.49,203.12c-.19.42-.4.84-.62,1.23a13,13,0,0,1-5.58,5.3,13.16,13.16,0,0,1-1.84.75A11.7,11.7,0,0,1,280,205.87c-3.83-5.44-2.79-10.79-1.77-20a12.66,12.66,0,0,1,19.33-9.54C305.91,181.5,304.85,195.26,301.49,203.12Z" style="fill:#e4897b"></path><path d="M295.29,209.65a13.16,13.16,0,0,1-1.84.75,11.81,11.81,0,0,1-10.05-1.25,13.77,13.77,0,0,1,2.15-2.81A18.23,18.23,0,0,1,295.29,209.65Z" style="opacity:0.2;isolation:isolate"></path><path d="M271.19,212.09c1.58,5.94,11.77,10.7,11.77,10.7s6.87,2.18,6.82-.44c-3.07-2.79-3.7-5.47-3.06-8a12.11,12.11,0,0,1,2.19-4.16,24.76,24.76,0,0,1,1.71-2l-6-16.05C282.45,198.81,277.58,210.41,271.19,212.09Z" style="fill:#e4897b"></path><path d="M300.19,183s2.58,8.69-6.33,14.93c0,0-3.74,8-5.83,9s-6.81.4-8.4,0-9.82-7.22-7.44-23.26,15.84-11,15.84-11,4.6-4,13.15,1C308.32,177.81,306.92,185.55,300.19,183Z" style="fill:#263238"></path><path d="M292.65,193.77a6,6,0,0,0,2.35,4.55c1.72,1.1,3.38-1.3,3.57-4.08.16-2.47-.52-6.1-2.58-6S292.42,191.21,292.65,193.77Z" style="fill:#e4897b"></path><path d="M301.29,223.69s-12.64-14.16-29.53-12.7S238,225.5,229.53,246s-10.95,51.49-10.95,51.49,27.33,7.83,55.12.69A295.73,295.73,0,0,1,301.29,223.69Z" style="fill:#263238"></path><path d="M301.29,223.69c4.27,4.43,16.46,24.74,19.93,25.5s8.52-2.36,12.47-1.17,8,4.79,7.1,7.1-10.2,8.46-21.73,8.79c-9.87.29-30.67-24.29-30.67-24.29C288.39,230.12,301.29,223.69,301.29,223.69Z" style="fill:#263238"></path><path d="M301.82,206.84l0-1a1.77,1.77,0,0,0,1.71-1.88c0-1.49-3.7-4.71-6-6.39l.58-.81c.66.47,6.47,4.72,6.46,7.2A2.76,2.76,0,0,1,301.82,206.84Z" style="fill:#263238"></path><path d="M301.24,193.42c0,4.14-2.42,7.5-5.39,7.5s-5.39-3.36-5.39-7.5,2.41-7.49,5.39-7.49S301.24,189.28,301.24,193.42Z" style="fill:#407BFF"></path><path d="M301.24,193.42c0,4.14-2.42,7.5-5.39,7.5s-5.39-3.36-5.39-7.5,2.41-7.49,5.39-7.49S301.24,189.28,301.24,193.42Z" style="opacity:0.2;isolation:isolate"></path><ellipse cx="297.74" cy="193.42" rx="3.55" ry="4.94" style="fill:#407BFF"></ellipse><path d="M299.43,189.84s.28-21.62-16-17.89c0,0,12.17,1.47,13,18.48Z" style="fill:#407BFF"></path><rect x="300.86" y="205.61" width="1.86" height="1.48" rx="0.51" transform="translate(-30.74 54.43) rotate(-9.81)" style="fill:#263238"></rect></g></g><g id="freepik--Chair--inject-9"><path d="M211.4,317.18h66.92a5,5,0,0,1,5,5v6.69a0,0,0,0,1,0,0H206.4a0,0,0,0,1,0,0v-6.69a5,5,0,0,1,5-5Z" style="fill:#407BFF"></path><path d="M211.4,317.18h66.92a5,5,0,0,1,5,5v6.69a0,0,0,0,1,0,0H206.4a0,0,0,0,1,0,0v-6.69a5,5,0,0,1,5-5Z" style="opacity:0.30000000000000004;isolation:isolate"></path><rect x="183.92" y="232.49" width="56.66" height="39.92" rx="14.58" transform="translate(424.5 504.9) rotate(180)" style="fill:#407BFF"></rect><g style="opacity:0.30000000000000004;isolation:isolate"><rect x="183.92" y="232.49" width="56.66" height="39.92" rx="14.58" transform="translate(424.5 504.9) rotate(180)"></rect></g><path d="M209.33,395.42l28.82-2.83V352.1h11.42v40.48l28.92,2.84a5.61,5.61,0,0,1,5.07,5.58v4.33H204.27V401A5.61,5.61,0,0,1,209.33,395.42Z" style="fill:#263238"></path><path d="M209.33,395.42l28.82-2.83V352.1h11.42v40.48l28.92,2.84a5.61,5.61,0,0,1,5.07,5.58v4.33H204.27V401A5.61,5.61,0,0,1,209.33,395.42Z" style="fill:#fff;opacity:0.2;isolation:isolate"></path><circle cx="280.51" cy="410.7" r="7.47" transform="translate(-62.16 50.24) rotate(-9.22)" style="fill:#263238"></circle><circle cx="207.32" cy="410.7" r="7.47" transform="translate(-229.68 266.89) rotate(-45)" style="fill:#263238"></circle><path d="M240.31,324.73h7.09a4.13,4.13,0,0,1,4.13,4.13V360.8a0,0,0,0,1,0,0H236.18a0,0,0,0,1,0,0V328.87A4.13,4.13,0,0,1,240.31,324.73Z" transform="translate(487.71 685.53) rotate(180)" style="fill:#263238"></path><path d="M240.31,324.73h7.09a4.13,4.13,0,0,1,4.13,4.13V360.8a0,0,0,0,1,0,0H236.18a0,0,0,0,1,0,0V328.87A4.13,4.13,0,0,1,240.31,324.73Z" transform="translate(487.71 685.53) rotate(180)" style="fill:#fff;opacity:0.30000000000000004;isolation:isolate"></path><path d="M216.56,261.44s-2.18,54,12.85,63.29H212.25s-13.3-18.39-9.54-63.29Z" style="fill:#263238"></path><path d="M216.56,261.44s-2.18,54,12.85,63.29H212.25s-13.3-18.39-9.54-63.29Z" style="fill:#fff;opacity:0.30000000000000004;isolation:isolate"></path><rect x="203.2" y="323.03" width="83.33" height="5.84" rx="2.01" style="fill:#263238"></rect><rect x="203.2" y="323.03" width="83.33" height="5.84" rx="2.01" style="fill:#fff;opacity:0.6000000000000001;isolation:isolate"></rect><rect x="193.01" y="244.62" width="32.01" height="22.55" rx="8.24" style="fill:#263238"></rect><rect x="193.01" y="244.62" width="32.01" height="22.55" rx="8.24" style="fill:#fff;opacity:0.2;isolation:isolate"></rect></g></svg>